# xmcd
#
# Track frame offsets: 
#        150
#        12306
#        30580
#        48500
#        68149
#        93253
#        107812
#        122120
#        143352
#        158375
#        173515
#        192043
#
# Disc length: 2989 seconds
#
# Revision: 1
# Processed by: cddbd v1.5.2PL0 Copyright (c) Steve Scherf et al.
# Submitted via: ExactAudioCopyFreeDBPlugin 1.0
#
DISCID=8a0bab0c
DTITLE=Kramer, Chris - 2013 - Chicago Blues
DYEAR=2013
DGENRE=Blues
TTITLE0=Harp Boogie
TTITLE1=Everytime
TTITLE2=Slipping Through My Hands
TTITLE3=Northwind
TTITLE4=New Economy
TTITLE5=May I Have The Next Dance
TTITLE6=Rock You With A Feeling
TTITLE7=Colors Of The Rainbow
TTITLE8=Momesik James
TTITLE9=River Minus Water
TTITLE10=Momecocking Mama
TTITLE11=Unknown Master
EXTD=
EXTT0=
EXTT1=
EXTT2=
EXTT3=
EXTT4=
EXTT5=
EXTT6=
EXTT7=
EXTT8=
EXTT9=
EXTT10=
EXTT11=
PLAYORDER=
